<?xml version="1.0" standalone="no"?>
<!DOCTYPE svg PUBLIC "-//W3C//DTD SVG 1.1//EN" "http://www.w3.org/Graphics/SVG/1.1/DTD/svg11.dtd" >
<svg xmlns="http://www.w3.org/2000/svg" xmlns:svg="http://www.w3.org/2000/svg" xmlns:xlink="http://www.w3.org/1999/xlink" viewBox="0 0 1024 1024"><path d="M61.5 903.5Q62.76 898.88 71.98 889.82Q75.32 880.89 111.2 879.71Q147.84 878.34 283.7 878.03Q369.74 876.89 426.41 875.56Q482.26 872.29 487.03 871.92Q487.74 870.81 490.15 849.56Q490.44 828.19 491.06 798.38V725.01L423.45 725.72Q398 725.83 385.61 724.55Q367.95 725.25 357.69 725.1Q352.55 727.76 348.63 728.69Q352.79 730.7 351.56 735.45Q347.16 736.59 351.54 740.34Q344.62 746.69 346.21 753.48Q347.28 752.98 343.54 755.13Q348.89 761.36 361.23 761.01Q368.5 776.83 397.24 781.66Q440.98 797.9 455.11 813.32Q459.06 814.3 463.91 823.8Q467 830.12 459.76 842.25Q452.9 856.13 441.99 855.81Q441.1 854.34 438.93 858.54Q421.78 859.77 410.15 844.47Q392.68 830.85 352.43 818.62Q318 803.23 308.97 805.49Q302.58 812.68 288.85 810.19Q284.62 815.84 258.73 833.43Q235.73 863.84 223.87 866.87Q204.54 870.86 210.47 868.53Q194.39 856.99 192.95 852.4Q190.3 829.14 210.03 819.93Q226.59 782.69 273.92 759.11L313.28 741.71L218.91 739.3Q165.38 723.21 154.15 718.89Q123.62 728.13 113.19 718.43Q124.69 711.39 120.94 695.31Q123.24 692.67 119.55 704.84Q125.41 688.36 112.82 690.91Q125.72 682.5 117.6 676.8Q118.74 677.51 175.55 675.4Q237.04 673.44 518.37 664.41Q741.13 670.09 815.34 670.44Q901.71 673.49 910.75 695.94Q897.98 674.2 891.09 690.64Q918.74 684.58 918.78 710.18Q915.64 693.59 922.13 704.89Q920.63 717.61 901.17 717.68Q915.21 730.06 899.4 736.26Q859.42 733.14 849.73 728.37Q795.92 735.79 784.13 738.71Q765.85 738.13 766.68 756.35Q742.79 775.14 760.52 756.98Q748.25 780.23 769.76 773.68Q763.73 801.86 795.68 801.25Q825.88 807.99 849.03 820.97Q874.28 837.8 877.87 838.08Q883.36 821.24 891.46 846.93Q872.12 835.77 889.93 858.77Q878.97 857.14 881.4 870.6Q856.9 848.11 876.21 848.14Q848.51 848.83 832.46 872.48Q818.96 864.04 781.02 847.81Q747.41 821.8 742.1 828.16L715.12 797.84L682.34 840.94Q670.8 826.45 677.34 855.24L657.53 857.73Q625.18 874.2 636.54 853.2Q616.9 856.47 610.19 864.44Q608.68 861.64 585.62 844.54Q610.46 835.96 586.31 817.58Q596.99 825.8 641.67 786.04Q666.94 782.32 696.02 770.79Q690.44 758.61 678.19 758.73Q700.96 738.89 655.56 728.79Q658.35 733.09 642.25 758.7Q595.58 737.88 582.31 759.64Q589.91 725.1 570.58 735.15Q567.98 749.47 588.48 759.07Q585.51 758.22 580.04 787.57Q559.95 820.77 574.85 831.41Q578.59 906.28 602.18 911.49Q579.92 881.67 635.72 893.44Q712.25 902.89 758.17 882.68Q874.73 895 893.1 911.47Q972.6 898.78 957.52 925.17Q961.64 935.27 991.2 941.77Q1004.61 910.9 972.73 928.67Q1000.83 954.65 957.03 954.07Q971.36 928.71 956.65 952.06Q986.1 940.22 920.2 958.77Q808.3 939.02 559.5 951.06H117.03L72.96 950.87Q64.21 934.87 61.6 920.86Q96.97 940.45 85.8 939.9ZM116.22 253.91Q98.58 216.82 128.35 240.9Q106.25 242.11 154.62 226.89Q173.18 196.71 336.44 242.26L489.1 243.83V146.23H389.98Q320.27 195.9 290.28 185.83Q230.32 160.38 219.26 185.34Q198.6 168.8 190.39 126.31Q199.74 153.11 216.49 116.22Q230.51 114.39 197.89 105.17Q177.71 115.29 259.86 102.53Q350.79 93.55 500.9 118.92Q655.31 104.29 768.32 143.75Q830.17 126.51 826.41 123.7Q843.34 102.47 824.38 142.85Q878.06 126.17 830.24 154.86Q842.5 151.46 832.56 164.69Q817.68 171.56 783.07 181.73Q769.81 190.46 710.53 140.15L565.82 158.2L561.58 219.65L717.35 229.56Q810.44 237.85 810.78 212.68Q891.54 195.02 875.17 210.59Q894.41 199.19 882.57 225.28H916.09Q946.94 249.26 912.3 216.64Q922.78 199.56 971.45 249.82Q986.4 215.36 959.71 239.02Q984.06 297.67 965.48 253.66Q976.42 287.55 981.99 334.21Q989.76 425.16 954.37 466.01Q962.56 476.98 898.62 462.06Q936.31 502.54 939.24 454.2Q887.92 471.18 891.24 440.43Q880.17 446.37 893.49 408.04Q884.5 378.56 872.34 406.96Q901.94 367.91 920.9 331.71Q883.27 273.49 911.95 325.5Q867.04 264.51 879.11 325.25Q890.84 315.9 846.09 314.91Q840.78 263.22 817.93 292.29Q815.13 294.51 721.77 269.95L608.19 255.52L603.61 375.2Q561.93 414.27 553.74 479.38Q562.13 450.71 538.11 515.43Q538.89 475.32 581.12 509.32Q514.18 487.06 519.8 497.87Q487.56 503.35 539.61 477.66Q499.91 421.36 494.95 358.92V302.04L205.27 302.47L165.86 353.18Q191.81 320.88 212.5 368.05Q203.64 390.42 195.4 412.14Q208.78 402.23 214.1 435.89Q229.72 443.7 227.28 477.6Q183.92 467.64 178.09 467.59Q209.06 483.03 195.32 496.56Q168.1 491.81 167.11 405.35Q104.14 428.43 154.28 341.71Q98.85 309.99 92.33 293.46Q106.46 267.74 156.54 236.24ZM669.99 561Q668.25 487.39 691.75 476.77Q713.58 524.14 695.37 473.66Q702.79 543.75 782.32 516.53Q792.12 484.66 836.92 529.44Q857.85 504.5 862.15 533.23Q941.33 477.19 885.57 498.43Q892.42 541.41 887 528.15Q924.47 533.84 930.4 547.86Q939.28 595.2 905.97 609.3Q951.01 599.42 905.41 609.14Q953.55 684.58 935.96 639.12Q858.33 704.4 870.45 677.09Q783.14 677.95 800.05 647.76Q692.37 634.41 695.29 702.65Q737.05 666.9 694.09 605.13Q714.76 606.34 682.36 585.79Q694.26 533.79 671.39 556.17Q702.06 546.15 719.88 537.01ZM430.22 519.11Q434.74 486.47 426.54 535.18Q438.25 503.41 565.86 518.27Q548.1 541.91 593.12 544.54Q618.05 496.59 665.72 520.87Q650.68 554.36 643.73 553.13Q658.25 526.12 662.49 585.6Q693.82 580.54 631.43 620.04Q655.51 590.95 688.67 642.43Q659.57 624.19 615.43 696.57Q675.53 623.86 643.43 670.83Q594.16 666.73 496.06 631.4Q491.38 703.12 419.11 690.82Q475.07 637.01 418.6 644.09Q442.36 667.65 474.59 594.94Q451.53 561.64 435.74 598.1Q391.93 496.88 434.78 500.94ZM186.19 505.52Q144.14 493.14 248.3 543.26Q231.31 514.61 268.07 551.49Q236.08 488.52 273.77 507.97Q300.15 472.62 291.06 556.93Q322.96 489.98 332.62 485.65Q345.05 549.85 379.2 560.98Q396.6 573.05 434.33 641.13Q370.19 651.78 400.44 626.59Q424.49 613.68 406.58 625.11Q322.82 704.2 282.31 712.57Q266.69 690.02 322.15 653.4Q278.53 696.93 264.44 675.52Q234.52 685.33 230.83 652.37Q196.23 666.59 174.02 644.53Q212.9 601.28 179.81 600.44Q175.77 599.88 212.53 578.42ZM305.04 437.92Q249.49 384.11 323.52 361.29Q302.83 375.48 323.95 371.89L307.83 432.99Q310.14 356.14 352.67 390.79Q299.17 372.54 374.98 452.77Q389.99 399.06 388.62 413.65Q386.84 433.79 471.96 437.37Q459.69 461.3 412.66 481.28Q385.54 465.05 432.55 479.98Q431.09 446.16 381.11 500.11Q339.81 489.46 300.47 475.54Q289.84 457.32 297.24 453.04Q254.73 444.84 270.21 420.92Q322.15 465.39 234.28 392.86ZM637.57 447.63Q685.05 439.77 694.78 386.2Q668.26 389.56 717.52 370.04Q760.52 382.71 757.84 424.73Q775.76 451.4 830.25 463.88Q809.9 469.25 819.57 469.25Q762.35 478.31 761.05 469.2Q844.48 486.01 831.12 435.39Q784.68 457.01 747.52 433.89Q723.15 447.16 690.62 451.87Q667.37 458.91 681.89 407.23Q639.47 442.38 728.03 423.51ZM348.44 344.61Q268.14 276.94 348.45 350.16Q359.73 357.43 301.16 295.68Q323.25 291.27 363.4 346.43Q385.56 304.6 461.04 313.43Q445.92 353.51 478.5 334.81Q404.48 392.68 404.13 421.34Q462.71 414.37 367.97 371.55Q454.87 439.88 363.33 352.04Q383.3 364.97 356.16 389.99Q282.54 358.42 305.89 315.97Q253.05 386.18 247.74 294.52Q261.42 325.22 277.92 363.78ZM699.58 352.63Q678.3 381.6 661.99 354.46Q701.88 369.77 672.81 349.07Q728.09 318.64 756.4 319.81Q780.91 353.17 747.01 318.04Q747.24 290.12 829.95 329.48Q783.25 344.11 793.8 308.42Q854.72 410.35 791.33 341.73Q802.99 335.66 768.55 383.44Q796.88 336.36 747.56 367.97Q727.75 337.7 732.08 366.02Q731.71 415.57 692.78 410.85Q730.23 330.68 678.99 348.43Q707.76 389.96 694.58 305.86Q673.41 388.46 680.06 362.26ZM791.37 648.25Q736.71 639.24 840.45 646.56Q794 647.73 838.02 657.54Q861.76 582.5 848.01 595.2Q837.44 577.41 842.52 575.58Q856.61 605 907.37 566.39Q847.36 599.66 846.42 625.71L921.75 610.56L816.65 558.7Q767.74 578.49 747.67 549.03Q759.11 584.29 805.69 613.51Q760.14 541.24 746.7 583.64V594.36Q791.7 588.08 746.83 567.56Q753.19 651.18 727.52 609.78ZM480.22 616.93L582.24 635.55L654.38 650.08V605.63Q566.19 590.56 577.18 541.31Q607.82 586.98 565.16 622.57Q599.76 559.52 532.89 589.24L518.66 586.8ZM261.09 612.27Q267.45 578.87 263.99 606.55Q306.43 641.28 295.41 664.16Q348.39 620.23 339.84 630.41Q320.14 585.35 314.71 653.74Q357.36 634.05 379.28 583.21L325.03 569.42H321.32Q252.2 569.99 301.6 533.16Q282.39 563.38 198.65 568.18Q232.33 563.12 242.48 529.5Q226.98 597.87 238.78 586.66Z" fill="black"></path></svg>