<?xml version="1.0" standalone="no"?>
<!DOCTYPE svg PUBLIC "-//W3C//DTD SVG 1.1//EN" "http://www.w3.org/Graphics/SVG/1.1/DTD/svg11.dtd" >
<svg xmlns="http://www.w3.org/2000/svg" xmlns:svg="http://www.w3.org/2000/svg" xmlns:xlink="http://www.w3.org/1999/xlink" viewBox="0 0 1024 1024"><path d="M61.5 903.5Q62.5 898.5 71.5 889.5Q74.5 880.5 110.5 879.0Q146.5 877.5 283.5 877.5Q368.5 875.5 425.0 873.5Q481.5 871.5 485.5 870.5Q487.5 868.5 488.0 847.0Q488.5 825.5 490.5 794.5V724.5L418.5 722.5Q397.5 721.5 382.5 721.5Q367.5 721.5 357.0 723.0Q346.5 724.5 346.5 728.5Q346.5 728.5 346.5 729.5Q346.5 735.5 345.5 740.0Q344.5 744.5 343.5 747.5Q343.5 748.5 343.5 749.5Q343.5 754.5 354.0 761.0Q364.5 767.5 391.5 778.5Q436.5 796.5 446.0 805.0Q455.5 813.5 455.5 821.5Q455.5 827.5 451.5 834.5Q443.5 848.5 436.0 849.5Q428.5 850.5 426.5 850.5Q414.5 850.5 400.5 839.5Q382.5 828.5 345.5 814.0Q308.5 799.5 296.5 798.5Q290.5 799.5 280.0 807.0Q269.5 814.5 256.5 825.5Q222.5 853.5 210.5 855.0Q198.5 856.5 196.5 856.5Q179.5 856.5 177.5 835.5Q177.5 823.5 198.0 802.5Q218.5 781.5 262.5 753.5L303.5 724.5L215.5 720.5Q154.5 718.5 136.5 716.0Q118.5 713.5 112.5 702.5Q105.5 693.5 105.0 690.0Q104.5 686.5 104.5 685.5Q104.5 681.5 107.5 675.5Q106.5 674.5 106.5 673.5Q106.5 666.5 168.0 665.0Q229.5 663.5 496.5 663.5Q740.5 663.5 813.5 665.0Q886.5 666.5 886.5 673.5Q886.5 673.5 886.5 673.5Q895.5 681.5 896.0 686.0Q896.5 690.5 896.5 691.5Q896.5 698.5 890.5 708.5Q888.5 713.5 873.0 716.0Q857.5 718.5 823.5 718.5Q784.5 720.5 770.0 724.0Q755.5 727.5 746.5 738.5Q735.5 749.5 735.5 754.0Q735.5 758.5 744.5 763.5Q762.5 776.5 790.5 787.5Q818.5 798.5 839.5 803.5Q863.5 807.5 867.0 813.5Q870.5 819.5 870.5 822.5Q870.5 828.5 863.5 835.5Q856.5 843.5 851.0 844.0Q845.5 844.5 844.5 844.5Q833.5 844.5 807.5 839.5Q787.5 835.5 763.5 827.5Q739.5 819.5 722.5 812.5L685.5 792.5L659.5 814.5Q649.5 821.5 640.5 830.5L627.5 843.5Q620.5 852.5 604.0 852.5Q587.5 852.5 578.5 844.5Q573.5 839.5 573.5 833.5Q573.5 825.5 582.5 811.0Q591.5 796.5 625.5 769.5Q645.5 754.5 658.0 742.0Q670.5 729.5 670.5 727.5Q670.5 724.5 654.5 722.5Q638.5 720.5 613.5 720.5Q575.5 720.5 564.5 722.5Q553.5 724.5 553.5 729.5Q553.5 730.5 553.5 731.5Q552.5 742.5 552.5 761.5Q552.5 780.5 554.0 821.0Q555.5 861.5 557.5 870.5Q560.5 871.5 614.5 873.5Q668.5 875.5 749.5 875.5Q829.5 875.5 887.0 878.0Q944.5 880.5 951.5 884.5Q960.5 889.5 961.5 896.5Q962.5 903.5 962.5 906.5Q962.5 916.5 956.5 927.5Q956.5 928.5 956.5 928.5Q956.5 934.5 882.0 936.5Q807.5 938.5 514.5 938.5H78.5L67.5 920.5Q61.5 909.5 61.5 904.5Q61.5 904.5 61.5 903.5ZM81.5 226.5Q82.5 209.5 89.5 204.5Q92.5 196.5 129.5 194.0Q166.5 191.5 285.5 191.5L469.5 189.5V144.5H339.5Q283.5 144.5 242.0 143.0Q200.5 141.5 191.5 141.5Q179.5 135.5 176.5 125.5Q173.5 115.5 173.5 110.5Q173.5 102.5 177.5 96.5Q177.5 88.5 239.5 87.0Q301.5 85.5 494.5 85.5Q625.5 85.5 714.5 87.0Q803.5 88.5 811.5 90.5Q820.5 97.5 822.0 105.5Q823.5 113.5 823.5 116.5Q823.5 125.5 818.5 130.5Q812.5 133.5 777.5 136.5Q742.5 139.5 679.5 139.5L550.5 141.5L546.5 182.5L694.5 184.5Q757.5 184.5 803.0 185.5Q848.5 186.5 856.5 186.5Q861.5 187.5 871.5 187.5H890.5Q897.5 189.5 907.5 193.0Q917.5 196.5 922.5 202.5Q931.5 209.5 933.0 221.0Q934.5 232.5 934.5 242.5Q934.5 262.5 931.5 301.5Q929.5 380.5 921.5 407.5Q913.5 434.5 893.5 434.5Q889.5 435.5 885.5 435.5Q869.5 435.5 863.5 420.5Q857.5 405.5 857.5 357.5Q857.5 350.5 857.5 342.5Q857.5 310.5 858.5 288.0Q859.5 265.5 859.5 263.5Q861.5 260.5 861.5 257.5Q861.5 246.5 845.0 244.5Q828.5 242.5 789.5 242.5Q756.5 242.5 704.5 243.5L550.5 245.5L548.5 333.5Q546.5 403.5 539.0 423.0Q531.5 442.5 515.5 442.5Q512.5 442.5 508.5 441.5Q506.5 441.5 504.5 441.5Q484.5 441.5 477.5 421.0Q470.5 400.5 470.5 331.5V250.5L150.5 247.5L155.5 294.5Q157.5 315.5 161.0 336.5Q164.5 357.5 168.5 367.5Q172.5 382.5 172.5 393.5Q172.5 408.5 165.0 417.5Q157.5 426.5 142.5 426.5Q134.5 426.5 123.5 423.5Q107.5 418.5 99.5 394.0Q91.5 369.5 85.5 297.5Q81.5 252.5 81.5 233.5Q81.5 229.5 81.5 226.5ZM652.5 490.5Q654.5 477.5 663.5 474.5Q670.5 466.5 685.5 466.0Q700.5 465.5 711.5 465.5Q734.5 465.5 773.5 466.5Q814.5 466.5 843.5 469.5Q872.5 472.5 875.5 475.5Q881.5 479.5 882.0 490.0Q882.5 500.5 882.5 507.5Q882.5 522.5 881.5 546.5Q879.5 571.5 877.0 591.0Q874.5 610.5 870.5 616.5Q854.5 623.5 807.5 624.0Q760.5 624.5 750.5 624.5Q683.5 624.5 665.5 618.5Q659.5 614.5 657.0 598.5Q654.5 582.5 652.5 547.5Q651.5 526.5 651.5 511.5Q651.5 497.5 652.5 490.5ZM389.5 479.5Q389.5 472.5 409.5 470.5Q429.5 468.5 488.5 468.5Q530.5 468.5 562.0 470.5Q593.5 472.5 602.5 474.5Q613.5 477.5 614.5 485.5Q615.5 493.5 615.5 504.5Q615.5 518.5 614.5 544.5Q613.5 578.5 609.5 594.5Q605.5 610.5 600.5 616.5Q595.5 619.5 570.0 621.5Q544.5 623.5 494.5 623.5Q431.5 623.5 413.5 621.5Q395.5 619.5 391.5 610.5Q386.5 596.5 386.0 567.5Q385.5 538.5 385.5 531.5Q385.5 494.5 389.5 479.5ZM135.5 494.5Q141.5 475.5 161.5 472.5Q166.5 472.5 192.0 471.5Q217.5 470.5 247.5 470.5Q256.5 470.5 264.5 470.5Q318.5 470.5 331.0 482.0Q343.5 493.5 344.5 534.5Q343.5 542.5 343.5 551.5Q343.5 561.5 344.5 569.5Q343.5 611.5 331.0 621.0Q318.5 630.5 263.5 630.5Q253.5 630.5 242.5 630.5Q231.5 630.5 221.5 630.5Q165.5 630.5 148.0 620.0Q130.5 609.5 130.5 567.5Q130.5 555.5 130.5 545.5Q130.5 509.5 135.5 494.5ZM228.5 369.5Q231.5 357.5 244.5 348.5Q251.5 344.5 256.5 341.5L260.5 339.5Q262.5 339.5 278.5 345.5Q294.5 351.5 316.5 362.5Q362.5 382.5 370.0 390.5Q377.5 398.5 377.5 403.5Q377.5 410.5 368.5 418.5Q364.5 423.5 355.5 426.5Q346.5 429.5 337.5 429.5Q314.5 429.5 278.5 416.5Q242.5 403.5 233.5 393.5Q227.5 385.5 227.5 377.5Q227.5 373.5 228.5 369.5ZM634.5 360.5Q644.5 346.5 659.5 346.5Q661.5 346.5 671.5 347.5Q681.5 348.5 712.5 366.5Q744.5 387.5 752.5 397.0Q760.5 406.5 760.5 412.5Q760.5 417.5 757.5 421.5Q749.5 434.5 733.5 434.5Q717.5 434.5 679.5 420.5Q641.5 405.5 634.5 396.5Q627.5 387.5 627.5 380.5Q627.5 371.5 634.5 360.5ZM253.5 270.5Q258.5 263.5 267.5 263.5Q270.5 263.5 279.0 265.5Q287.5 267.5 335.5 285.5Q371.5 299.5 380.5 309.0Q389.5 318.5 389.5 327.5Q389.5 332.5 386.5 339.5Q380.5 350.5 365.5 350.5Q363.5 350.5 354.0 349.5Q344.5 348.5 298.5 326.5Q256.5 306.5 250.5 299.5Q244.5 292.5 244.5 287.5Q244.5 279.5 253.5 270.5ZM645.5 294.5Q645.5 286.5 647.5 279.5Q649.5 272.5 652.5 268.5Q662.5 261.5 681.5 261.5Q691.5 261.5 715.5 265.0Q739.5 268.5 758.5 285.5Q767.5 295.5 767.5 305.5Q767.5 313.5 758.0 324.5Q748.5 335.5 731.5 335.5Q725.5 335.5 717.5 333.5Q710.5 330.5 698.0 326.5Q685.5 322.5 672.5 319.5Q654.5 315.5 649.5 311.5Q644.5 307.5 644.5 300.5Q644.5 297.5 645.5 294.5ZM725.5 572.5Q736.5 577.5 757.5 577.5Q767.5 577.5 780.5 576.5Q796.5 574.5 808.5 574.0Q820.5 573.5 821.5 573.5Q823.5 571.5 824.5 564.0Q825.5 556.5 825.5 544.5L823.5 519.5L769.5 517.5Q746.5 517.5 730.0 518.5Q713.5 519.5 712.5 519.5Q710.5 520.5 710.5 527.5V544.5Q710.5 546.5 710.5 548.5Q710.5 565.5 725.5 572.5ZM452.5 574.5 551.5 578.5 555.5 553.5V534.5Q555.5 526.5 553.5 526.5Q551.5 526.5 536.5 525.5Q521.5 524.5 499.5 522.5L449.5 519.5ZM198.5 549.5Q204.5 567.5 211.5 573.5Q224.5 578.5 251.5 578.5Q278.5 578.5 283.5 573.5Q285.5 571.5 285.5 562.5Q285.5 553.5 283.5 542.5L280.5 515.5H238.5Q220.5 515.5 208.0 518.0Q195.5 520.5 193.5 524.5Q193.5 526.5 193.5 528.5Q193.5 535.5 198.5 549.5Z" fill="black"></path></svg>